<svg fill="none" viewBox="0 0 24 24" xmlns="http://www.w3.org/2000/svg"><path clip-rule="evenodd" d="M10.236 4.5a1.5 1.5 0 0 0-1.342.83l-.394.788A2.5 2.5 0 0 1 6.264 7.5H5A1.5 1.5 0 0 0 3.5 9v9A1.5 1.5 0 0 0 5 19.5h14a1.5 1.5 0 0 0 1.5-1.5V9A1.5 1.5 0 0 0 19 7.5h-1.264A2.5 2.5 0 0 1 15.5 6.118l-.394-.789a1.5 1.5 0 0 0-1.342-.829h-3.528ZM8 4.882A2.5 2.5 0 0 1 10.236 3.5h3.528A2.5 2.5 0 0 1 16 4.882l.394.789a1.5 1.5 0 0 0 1.342.829H19A2.5 2.5 0 0 1 21.5 9v9a2.5 2.5 0 0 1-2.5 2.5H5A2.5 2.5 0 0 1 2.5 18V9A2.5 2.5 0 0 1 5 6.5h1.264a1.5 1.5 0 0 0 1.342-.83L8 4.883Z" fill="#421b73" fill-rule="evenodd" class="fill-000000"></path><path clip-rule="evenodd" d="M11.5 16V8h1v8h-1Z" fill="#421b73" fill-rule="evenodd" class="fill-000000"></path><path clip-rule="evenodd" d="M16 12.5H8v-1h8v1Z" fill="#421b73" fill-rule="evenodd" class="fill-000000"></path></svg>