<svg width="127" height="38" viewBox="0 0 127 38" fill="none" xmlns="http://www.w3.org/2000/svg">
<path d="M8.71701 26.1267L9.7859 26.9734L6.24674 30.4081L5.17785 29.5614L8.71701 26.1267ZM12.9892 34.0388L5.35551 27.9916C4.92795 27.6529 4.65876 27.2887 4.54795 26.8991C4.43416 26.5071 4.44884 26.1186 4.59199 25.7337C4.73216 25.3465 4.96807 24.9919 5.29969 24.6701C5.54434 24.4327 5.77591 24.2472 5.99441 24.1136C6.20995 23.9777 6.37767 23.883 6.49756 23.8294L7.28994 24.9602C7.21504 25.0015 7.12087 25.0563 7.00741 25.1245C6.89099 25.1904 6.7689 25.2854 6.64114 25.4093C6.34485 25.6969 6.21299 25.9662 6.24557 26.2172C6.28086 26.4655 6.44994 26.7097 6.75279 26.9496L14.2083 32.8556L12.9892 34.0388Z" fill="#FAFAEE"/>
<path d="M23.7999 26.0164C23.0796 26.486 22.3404 26.7503 21.5824 26.8093C20.8251 26.8634 20.0884 26.7268 19.3724 26.3995C18.6571 26.0673 18.0067 25.556 17.4211 24.8655C16.843 24.1837 16.473 23.4918 16.3113 22.7897C16.1527 22.0856 16.202 21.4232 16.4591 20.8025C16.7194 20.1797 17.189 19.647 17.8681 19.2043C18.2806 18.9354 18.7331 18.7368 19.2255 18.6087C19.718 18.4805 20.2308 18.449 20.764 18.5141C21.2972 18.5793 21.8327 18.7663 22.3705 19.0751C22.9059 19.381 23.4296 19.8359 23.9416 20.4397L24.3311 20.8991L18.5195 24.6878L17.6964 23.7171L22.1134 20.8375C21.8243 20.4966 21.4921 20.2444 21.1169 20.0808C20.7392 19.9143 20.3474 19.8445 19.9415 19.8713C19.5387 19.8961 19.1533 20.0285 18.7853 20.2684C18.3854 20.5291 18.1123 20.8462 17.966 21.2198C17.8203 21.5884 17.7878 21.9685 17.8685 22.36C17.95 22.7465 18.1315 23.1059 18.4133 23.4381L19.0563 24.1965C19.4336 24.6414 19.8402 24.964 20.2762 25.1643C20.7153 25.3626 21.1601 25.4427 21.6107 25.4046C22.0589 25.3637 22.4908 25.2077 22.9065 24.9367C23.1762 24.7609 23.3927 24.5659 23.556 24.3517C23.7169 24.1347 23.8182 23.9026 23.86 23.6556C23.9018 23.4085 23.8773 23.1531 23.7866 22.8892L25.321 22.2321C25.5194 22.6635 25.5941 23.1061 25.5451 23.5597C25.4969 24.0083 25.3271 24.4443 25.0356 24.8676C24.7449 25.2859 24.333 25.6688 23.7999 26.0164Z" fill="#FAFAEE"/>
<path d="M37.0879 19.719C36.2844 20.0251 35.5108 20.1241 34.7672 20.016C34.0254 19.9032 33.3481 19.6064 32.7354 19.1256C32.1246 18.6401 31.6182 17.9918 31.2163 17.1806C30.8194 16.3796 30.6254 15.6143 30.6342 14.8847C30.6465 14.1537 30.8492 13.5097 31.2421 12.9525C31.6386 12.3939 32.2157 11.9704 32.9732 11.6818C33.4333 11.5065 33.9155 11.4096 34.4197 11.3911C34.9238 11.3725 35.425 11.454 35.923 11.6354C36.4211 11.8169 36.8929 12.1194 37.3383 12.5428C37.782 12.9628 38.1797 13.5275 38.5311 14.2369L38.7985 14.7765L32.3154 17.2461L31.7504 16.1056L36.6777 14.2287C36.4793 13.8282 36.2186 13.5059 35.8957 13.2618C35.571 13.0142 35.2102 12.8592 34.8131 12.7966C34.4195 12.7327 34.0175 12.7789 33.6069 12.9353C33.1608 13.1052 32.8236 13.3587 32.5951 13.6959C32.3685 14.0283 32.2482 14.397 32.2341 14.8017C32.222 15.2018 32.3126 15.597 32.506 15.9873L32.9474 16.8782C33.2064 17.4009 33.5223 17.8092 33.895 18.1029C34.2713 18.3953 34.6809 18.5722 35.1236 18.6335C35.5647 18.6914 36.0171 18.6321 36.4808 18.4554C36.7817 18.3408 37.0358 18.1956 37.2433 18.0198C37.449 17.8405 37.6009 17.6334 37.6991 17.3983C37.7972 17.1632 37.8335 16.9053 37.808 16.6245L39.4393 16.3118C39.5291 16.7819 39.4973 17.2358 39.3439 17.6735C39.1924 18.1064 38.9267 18.5002 38.5469 18.8546C38.1689 19.2044 37.6826 19.4925 37.0879 19.719Z" fill="#FAFAEE"/>
<path d="M46.7514 4.96103L49.6437 16.2322L47.977 16.561L45.0847 5.28984L46.7514 4.96103Z" fill="#FAFAEE"/>
<path d="M70.3972 18.7799C69.7075 18.7102 69.1258 18.5601 68.652 18.3295C68.182 18.0994 67.8101 17.8201 67.5363 17.4918C67.2625 17.1635 67.0716 16.8151 66.9635 16.4464L68.4948 15.9961C68.5748 16.1716 68.6875 16.36 68.8329 16.5611C68.9816 16.7664 69.1943 16.9497 69.471 17.1108C69.7514 17.2724 70.1253 17.3767 70.5926 17.424C71.2333 17.4887 71.7833 17.3864 72.2426 17.1169C72.7014 16.8512 72.9752 16.3804 73.0641 15.7044L73.2877 14.0031L73.1803 13.9923C73.0544 14.166 72.8805 14.3558 72.6586 14.5617C72.4406 14.768 72.1549 14.937 71.8015 15.0688C71.4482 15.2005 71.0058 15.2395 70.4744 15.1858C69.7885 15.1165 69.1914 14.8944 68.6831 14.5196C68.1791 14.1414 67.8082 13.6225 67.5703 12.963C67.3367 12.3 67.2803 11.5085 67.4013 10.5884C67.5222 9.66828 67.7823 8.89541 68.1815 8.2698C68.5845 7.64457 69.084 7.18512 69.6802 6.89146C70.2768 6.59405 70.9237 6.48057 71.6209 6.55103C72.1599 6.60549 72.5833 6.73962 72.8912 6.9534C73.1997 7.16343 73.4307 7.39607 73.5842 7.65134C73.7416 7.90698 73.8593 8.13008 73.9373 8.32063L74.0617 8.3332L74.2461 6.93049L75.9024 7.09789L74.7398 15.9423C74.642 16.6859 74.3885 17.2786 73.979 17.7205C73.5696 18.1624 73.054 18.4681 72.4322 18.6373C71.8142 18.807 71.1358 18.8545 70.3972 18.7799ZM71.0311 13.8265C71.5173 13.8756 71.9429 13.8044 72.3079 13.613C72.6772 13.4182 72.9765 13.1173 73.2056 12.7105C73.439 12.3003 73.595 11.7966 73.6735 11.1994C73.75 10.6173 73.7307 10.0959 73.6156 9.63525C73.5005 9.17457 73.2915 8.80335 72.9887 8.52159C72.6863 8.23606 72.2883 8.06836 71.7946 8.01846C71.2859 7.96705 70.8446 8.05564 70.4709 8.28426C70.0976 8.50911 69.7949 8.83624 69.5628 9.26563C69.3345 9.6954 69.184 10.1863 69.1115 10.7384C69.0369 11.3055 69.0582 11.8119 69.1753 12.2575C69.2923 12.7032 69.5047 13.0633 69.8123 13.3379C70.1236 13.613 70.5299 13.7758 71.0311 13.8265Z" fill="#FAFAEE"/>
<path d="M85.6861 18.2865C84.9056 18.0412 84.2954 17.6535 83.8555 17.1235C83.4157 16.5935 83.1626 15.9659 83.0962 15.2407C83.0298 14.5155 83.1672 13.7357 83.5084 12.9013C83.851 12.0633 84.3115 11.3811 84.8897 10.8546C85.4679 10.3281 86.1189 9.98278 86.8426 9.81857C87.5663 9.65436 88.3185 9.69495 89.099 9.94032C89.8795 10.1857 90.4897 10.5734 90.9295 11.1034C91.3694 11.6334 91.6218 12.2627 91.6867 12.9914C91.7517 13.7201 91.6129 14.5034 91.2702 15.3414C90.929 16.1758 90.47 16.8545 89.8932 17.3775C89.3164 17.9005 88.6662 18.2441 87.9424 18.4083C87.2187 18.5725 86.4666 18.5319 85.6861 18.2865ZM86.2313 16.9682C86.7372 17.1272 87.2094 17.1293 87.6479 16.9743C88.0865 16.8194 88.4734 16.5513 88.8088 16.17C89.1477 15.7899 89.4233 15.3404 89.6355 14.8215C89.8462 14.3061 89.9585 13.8072 89.9722 13.3249C89.991 12.8401 89.8879 12.414 89.663 12.0466C89.4381 11.6791 89.0727 11.4158 88.5668 11.2568C88.0573 11.0966 87.5807 11.0952 87.1371 11.2525C86.6972 11.4109 86.307 11.682 85.9666 12.0656C85.6313 12.4469 85.3582 12.8952 85.1475 13.4106C84.9353 13.9295 84.8205 14.4296 84.8032 14.9108C84.7894 15.3932 84.8957 15.8163 85.1221 16.1803C85.352 16.5454 85.7218 16.808 86.2313 16.9682Z" fill="#FAFAEE"/>
<path d="M99.611 23.8589C98.8992 23.4556 98.3892 22.9526 98.0811 22.3501C97.773 21.7475 97.6724 21.0918 97.7791 20.3829C97.8859 19.6739 98.2067 18.9566 98.7416 18.2309C99.2788 17.5022 99.8951 16.9481 100.591 16.5685C101.286 16.1889 102.011 15.9985 102.764 15.9973C103.517 15.9961 104.249 16.1972 104.961 16.6006C105.673 17.004 106.183 17.507 106.491 18.1095C106.799 18.712 106.899 19.3693 106.79 20.0813C106.681 20.7933 106.358 21.5136 105.82 22.2423C105.285 22.968 104.671 23.5191 103.978 23.8957C103.285 24.2722 102.561 24.461 101.808 24.4622C101.055 24.4634 100.323 24.2623 99.611 23.8589ZM100.462 22.7138C100.923 22.9752 101.389 23.079 101.858 23.0252C102.328 22.9714 102.773 22.798 103.195 22.5052C103.62 22.2142 103.998 21.8431 104.331 21.3918C104.661 20.9436 104.891 20.4899 105.019 20.0309C105.152 19.5706 105.152 19.1402 105.017 18.7397C104.883 18.3392 104.585 18.0083 104.123 17.7468C103.659 17.4835 103.189 17.3793 102.714 17.4344C102.242 17.4912 101.793 17.6667 101.366 17.9607C100.944 18.2536 100.568 18.6241 100.238 19.0723C99.9052 19.5236 99.6732 19.9778 99.5418 20.435C99.4136 20.8941 99.418 21.3224 99.5549 21.7198C99.695 22.1191 99.9974 22.4504 100.462 22.7138Z" fill="#FAFAEE"/>
<path d="M111.554 31.8427C111.033 31.3689 110.705 30.8298 110.57 30.2254C110.441 29.6212 110.516 28.9968 110.796 28.3524C111.08 27.708 111.583 27.0812 112.303 26.4721C113.023 25.8629 113.755 25.4475 114.5 25.2259C115.247 25.0069 115.961 24.9683 116.643 25.1103C117.324 25.2522 117.924 25.5589 118.442 26.0301C118.843 26.3944 119.096 26.7461 119.201 27.0852C119.312 27.4243 119.343 27.7321 119.296 28.0085C119.251 28.2875 119.197 28.5201 119.134 28.7063L119.21 28.775L122.511 25.9824L123.768 27.1249L114.884 34.6405L113.656 33.5248L114.693 32.6477L114.588 32.5522C114.371 32.6032 114.099 32.6409 113.774 32.6651C113.452 32.6919 113.099 32.6506 112.717 32.5415C112.334 32.4323 111.947 32.1993 111.554 31.8427ZM112.938 31.1591C113.299 31.4877 113.703 31.6822 114.149 31.7426C114.601 31.8031 115.068 31.7426 115.55 31.5614C116.034 31.3826 116.511 31.0951 116.979 30.6987C117.442 30.3073 117.782 29.9062 118 29.4954C118.219 29.0847 118.3 28.684 118.244 28.2933C118.188 27.9027 117.977 27.5405 117.61 27.2068C117.231 26.8629 116.814 26.6619 116.36 26.6039C115.905 26.5459 115.438 26.6063 114.959 26.7852C114.483 26.9666 114.025 27.2432 113.586 27.615C113.141 27.9918 112.805 28.3892 112.578 28.8073C112.351 29.2254 112.26 29.6372 112.304 30.0426C112.354 30.4481 112.565 30.8203 112.938 31.1591Z" fill="#FAFAEE"/>
</svg>
