<svg width="175" height="55" viewBox="0 0 175 55" fill="none" xmlns="http://www.w3.org/2000/svg">
<path d="M4.74367 13.342C4.18463 12.6887 3.84529 12.0096 3.72565 11.3048C3.6114 10.6005 3.70402 9.90781 4.00351 9.22683C4.3084 8.54633 4.81102 7.91925 5.51138 7.34561C6.20295 6.77916 6.92082 6.40655 7.66501 6.22778C8.41166 6.05189 9.12876 6.07154 9.8163 6.28672C10.5063 6.50478 11.1148 6.92176 11.6418 7.53766C11.962 7.9118 12.2093 8.32604 12.3837 8.78036C12.5582 9.23469 12.6301 9.71185 12.5994 10.2118C12.5686 10.7118 12.4069 11.2188 12.114 11.7328C11.8241 12.2444 11.3729 12.751 10.7605 13.2527L10.2945 13.6343L5.78404 8.36321L6.76864 7.55674L10.1968 11.5629C10.5425 11.2797 10.7897 10.9598 10.9381 10.6033C11.0895 10.2443 11.1357 9.87602 11.0768 9.49842C11.0203 9.1237 10.8492 8.76942 10.5635 8.43557C10.2532 8.07294 9.89148 7.83076 9.4783 7.70904C9.07052 7.5878 8.65877 7.57259 8.24306 7.66343C7.83275 7.75475 7.4591 7.93842 7.1221 8.21445L6.35288 8.8445C5.90161 9.21413 5.58422 9.60626 5.40073 10.0209C5.2197 10.4384 5.16634 10.8566 5.24066 11.2755C5.3179 11.6919 5.51784 12.0886 5.84045 12.4657C6.04979 12.7103 6.27581 12.9045 6.51853 13.0484C6.76418 13.1899 7.0216 13.2752 7.29079 13.3043C7.55998 13.3335 7.83331 13.3005 8.11079 13.2054L8.93205 14.6108C8.48202 14.8129 8.01092 14.9002 7.51874 14.8725C7.03196 14.8454 6.54984 14.7043 6.07238 14.4492C5.60031 14.1946 5.15741 13.8255 4.74367 13.342Z" fill="#FAFAEE"/>
<path d="M19.1992 15.5872L18.3071 19.352L22.0778 18.1728L23.46 19.4144L18.4493 20.7777L17.505 25.7936L16.1227 24.552L16.8919 20.8601L13.2019 21.9285L11.8154 20.6831L16.8219 19.316L17.8127 14.3419L19.1992 15.5872Z" fill="#FAFAEE"/>
<path d="M20.6724 32.433L27.6641 22.6803L29.0321 23.619L28.2078 24.7688L28.3249 24.8492C28.512 24.7571 28.7516 24.6666 29.0437 24.5777C29.3358 24.4888 29.6696 24.4652 30.045 24.507C30.4227 24.5456 30.8348 24.7182 31.2814 25.0247C31.8624 25.4233 32.2771 25.9238 32.5256 26.5261C32.7742 27.1284 32.8328 27.7909 32.7014 28.5137C32.5731 29.2386 32.2342 29.9844 31.6846 30.7509C31.1351 31.5175 30.5343 32.0858 29.8822 32.4559C29.2324 32.8229 28.5751 32.9988 27.9103 32.9836C27.2478 32.9653 26.6261 32.7568 26.0451 32.3582C25.6079 32.0581 25.3021 31.7404 25.1279 31.4049C24.9568 31.0717 24.8626 30.7545 24.8455 30.4533C24.8284 30.1522 24.8317 29.8973 24.8556 29.6886L24.7712 29.6308L22.0732 33.3943L20.6724 32.433ZM26.4943 27.1686C26.1368 27.6674 25.8968 28.1549 25.7744 28.6312C25.6519 29.1075 25.6535 29.5472 25.7792 29.9504C25.9071 30.3505 26.1725 30.6888 26.5754 30.9652C26.9939 31.2524 27.4221 31.3832 27.8599 31.3575C28.2999 31.3287 28.7274 31.1743 29.1425 30.8942C29.5608 30.6163 29.9399 30.2403 30.2797 29.7662C30.6152 29.2983 30.8446 28.8287 30.968 28.3577C31.0945 27.8887 31.0929 27.449 30.9631 27.0385C30.8365 26.6301 30.5624 26.2812 30.1408 25.9919C29.7347 25.7133 29.3172 25.5806 28.8883 25.594C28.4624 25.6095 28.0453 25.7527 27.6368 26.0235C27.2283 26.2944 26.8475 26.6761 26.4943 27.1686Z" fill="#FAFAEE"/>
<path d="M42.0192 28.187L36.3461 38.3468L34.8478 37.546L40.5209 27.3862L42.0192 28.187Z" fill="#FAFAEE"/>
<path d="M46.6773 43.3188C45.9177 43.0147 45.3271 42.5764 44.9056 42.0038C44.4841 41.4312 44.247 40.7713 44.1941 40.024C44.1413 39.2766 44.2887 38.4871 44.6365 37.6554C44.9858 36.8202 45.4477 36.1524 46.0223 35.6522C46.5968 35.1519 47.2395 34.8421 47.9504 34.7228C48.6613 34.6034 49.3965 34.6958 50.1561 34.9998C50.9157 35.3039 51.5062 35.7422 51.9277 36.3148C52.3492 36.8874 52.5857 37.5491 52.637 38.2999C52.6884 39.0507 52.5395 39.8437 52.1902 40.679C51.8424 41.5107 51.382 42.1749 50.8089 42.6717C50.2358 43.1685 49.5938 43.4765 48.8829 43.5958C48.1721 43.7152 47.4369 43.6228 46.6773 43.3188ZM47.2328 42.0052C47.7251 42.2022 48.1871 42.2362 48.6188 42.1071C49.0504 41.978 49.4335 41.7295 49.768 41.3616C50.106 40.9951 50.3831 40.5533 50.5994 40.0361C50.8142 39.5223 50.9324 39.0189 50.9539 38.5257C50.9804 38.0305 50.8866 37.587 50.6727 37.1954C50.4588 36.8038 50.1057 36.5095 49.6133 36.3124C49.1175 36.1139 48.6512 36.0803 48.2146 36.2115C47.7815 36.3441 47.3952 36.5954 47.0557 36.9654C46.7212 37.3333 46.4466 37.7741 46.2318 38.2878C46.0155 38.805 45.8948 39.3095 45.8698 39.8013C45.8483 40.2945 45.9453 40.7351 46.1606 41.1232C46.3795 41.5127 46.7369 41.8067 47.2328 42.0052Z" fill="#FAFAEE"/>
<path d="M57.0787 46.7154L59.47 38.3221L61.0542 38.7542L60.6744 40.0875L60.7621 40.1114C61.0442 39.7015 61.4159 39.4201 61.8769 39.2671C62.3427 39.1114 62.8222 39.1009 63.3156 39.2354C63.4179 39.2633 63.5375 39.2998 63.6742 39.345C63.8147 39.3912 63.9236 39.4307 64.0008 39.4635L63.5556 41.0263C63.495 40.9902 63.3838 40.9382 63.2219 40.8705C63.061 40.7992 62.8966 40.7406 62.7285 40.6948C62.3411 40.5891 61.9724 40.5769 61.6224 40.6581C61.2771 40.7367 60.9757 40.8959 60.7183 41.1359C60.4619 41.3722 60.2818 41.6725 60.178 42.0368L58.7177 47.1624L57.0787 46.7154Z" fill="#FAFAEE"/>
<path d="M71.031 49.936C70.1811 49.8058 69.4781 49.5122 68.9222 49.0553C68.3705 48.5953 67.9811 48.0087 67.7538 47.2956C67.5309 46.5794 67.491 45.7743 67.6341 44.8804C67.7753 43.9977 68.0646 43.2449 68.5019 42.6222C68.9429 42 69.4913 41.5456 70.1471 41.2591C70.8066 40.9731 71.537 40.8915 72.3382 41.0142C72.825 41.0888 73.2839 41.2415 73.7149 41.4723C74.146 41.7031 74.5156 42.0184 74.8237 42.4182C75.1318 42.8179 75.3467 43.3088 75.4683 43.8907C75.5906 44.4689 75.5892 45.1489 75.464 45.9306L75.3688 46.5253L68.5114 45.4746L68.7125 44.2179L73.9244 45.0164C73.9951 44.5751 73.9678 44.1705 73.8425 43.8026C73.7179 43.4309 73.5086 43.121 73.2146 42.8729C72.9243 42.6253 72.562 42.4683 72.1277 42.4017C71.6559 42.3294 71.2255 42.3823 70.8364 42.5603C70.4517 42.7351 70.1342 42.993 69.884 43.334C69.6381 43.6719 69.4807 44.0559 69.4119 44.486L69.2547 45.4678C69.1625 46.0438 69.1852 46.5493 69.3227 46.9842C69.464 47.4197 69.701 47.7722 70.0338 48.0416C70.3672 48.3073 70.7792 48.4777 71.2697 48.5528C71.5879 48.6016 71.8853 48.6012 72.1618 48.5515C72.4388 48.4982 72.6875 48.3945 72.9078 48.2405C73.1281 48.0865 73.3103 47.8826 73.4545 47.6288L74.9981 48.1584C74.796 48.6064 74.502 48.981 74.1163 49.2821C73.7348 49.58 73.2814 49.7884 72.7561 49.9072C72.2351 50.0228 71.66 50.0324 71.031 49.936Z" fill="#FAFAEE"/>
<path d="M92.6725 54.1663C92.4192 54.182 92.1872 54.1754 91.9766 54.1467C91.7662 54.1218 91.6085 54.0898 91.5035 54.0507L91.8221 52.6363C92.1375 52.7003 92.4158 52.7192 92.657 52.6929C92.8982 52.6666 93.106 52.5626 93.2803 52.3811C93.4583 52.1993 93.6067 51.9112 93.7255 51.5168L93.8979 50.9254L90.141 42.2999L91.9557 42.1878L94.5983 48.81L94.689 48.8044L96.4585 41.9094L98.2789 41.7968L95.3267 51.8902C95.1897 52.3541 95.0027 52.7509 94.7659 53.0805C94.5293 53.4139 94.2385 53.671 93.8934 53.8517C93.5482 54.0325 93.1413 54.1373 92.6725 54.1663Z" fill="#FAFAEE"/>
<path d="M108.643 49.1238C107.84 49.2784 107.102 49.2294 106.429 48.977C105.756 48.7246 105.188 48.2997 104.724 47.7024C104.26 47.1051 103.939 46.3645 103.762 45.4806C103.583 44.5931 103.593 43.7851 103.79 43.0567C103.988 42.3282 104.349 41.7226 104.874 41.2397C105.399 40.7569 106.063 40.4381 106.867 40.2836C107.67 40.129 108.408 40.1779 109.081 40.4303C109.754 40.6827 110.322 41.1095 110.787 41.7105C111.252 42.3116 111.573 43.0559 111.752 43.9434C111.929 44.8273 111.919 45.6315 111.721 46.3562C111.523 47.081 111.161 47.6848 110.636 48.1676C110.111 48.6505 109.447 48.9692 108.643 49.1238ZM108.368 47.7245C108.889 47.6244 109.293 47.4039 109.58 47.0633C109.867 46.7226 110.046 46.3082 110.118 45.8199C110.193 45.3309 110.176 44.8117 110.065 44.262C109.956 43.7161 109.771 43.2309 109.512 42.8063C109.256 42.3773 108.929 42.0565 108.53 41.8438C108.132 41.6311 107.673 41.5749 107.152 41.6751C106.628 41.776 106.22 41.999 105.93 42.3441C105.644 42.6884 105.464 43.1069 105.389 43.5996C105.317 44.0879 105.336 44.605 105.446 45.1509C105.556 45.7005 105.739 46.1879 105.995 46.6132C106.254 47.0378 106.582 47.3546 106.98 47.5635C107.381 47.7718 107.844 47.8255 108.368 47.7245Z" fill="#FAFAEE"/>
<path d="M123.359 41.1657L121.671 36.3448L123.287 35.8031L126.171 44.0398L124.588 44.5708L124.088 43.1443L124.002 43.1732C123.965 43.6768 123.789 44.1455 123.471 44.5795C123.156 45.0088 122.688 45.3275 122.066 45.5358C121.535 45.714 121.023 45.7555 120.533 45.6604C120.044 45.5605 119.602 45.3191 119.208 44.9362C118.816 44.552 118.502 44.0204 118.264 43.3411L116.429 38.102L118.04 37.562L119.807 42.6081C120.003 43.1694 120.316 43.5639 120.745 43.7916C121.174 44.0193 121.638 44.0495 122.137 43.8822C122.439 43.781 122.712 43.6054 122.958 43.3554C123.207 43.1041 123.377 42.7934 123.468 42.4233C123.563 42.052 123.527 41.6328 123.359 41.1657Z" fill="#FAFAEE"/>
<path d="M132.958 41.1464L129.121 33.3077L130.608 32.611L131.218 33.8562L131.3 33.8177C131.238 33.3283 131.329 32.8777 131.574 32.4658C131.822 32.0489 132.177 31.7319 132.64 31.515C132.736 31.47 132.851 31.4204 132.984 31.3661C133.121 31.3102 133.23 31.2697 133.311 31.2446L134.025 32.7041C133.955 32.716 133.836 32.7487 133.668 32.8022C133.499 32.8524 133.335 32.9144 133.177 32.9883C132.814 33.1586 132.527 33.3871 132.317 33.6735C132.109 33.955 131.989 34.2687 131.956 34.6146C131.921 34.9571 131.987 35.2985 132.153 35.6387L134.496 40.4256L132.958 41.1464Z" fill="#FAFAEE"/>
<path d="M144.334 27.3877L143.166 28.4204C143.005 28.2879 142.817 28.1832 142.602 28.1062C142.39 28.0272 142.153 28.0011 141.891 28.0278C141.63 28.0544 141.349 28.1596 141.048 28.3432C140.638 28.5941 140.353 28.8944 140.195 29.2443C140.034 29.5909 140.044 29.9064 140.226 30.1905C140.383 30.4364 140.601 30.578 140.881 30.6155C141.161 30.653 141.537 30.5943 142.009 30.4392L143.363 29.9846C144.148 29.7224 144.813 29.6514 145.357 29.7716C145.901 29.8919 146.339 30.2123 146.671 30.7327C146.952 31.1733 147.074 31.645 147.035 32.1479C146.998 32.6455 146.812 33.1319 146.477 33.6072C146.146 34.0804 145.68 34.5007 145.078 34.868C144.244 35.3775 143.452 35.6177 142.701 35.5884C141.948 35.5559 141.304 35.2505 140.768 34.6722L142.035 33.6054C142.352 33.9128 142.706 34.0762 143.096 34.0955C143.483 34.1116 143.896 33.9863 144.332 33.7197C144.807 33.4294 145.125 33.1 145.285 32.7314C145.443 32.3597 145.431 32.0317 145.25 31.7475C145.103 31.5176 144.892 31.3778 144.618 31.328C144.347 31.2762 144.008 31.319 143.602 31.4565L142.167 31.9537C141.372 32.2219 140.699 32.2868 140.148 32.1486C139.6 32.0084 139.159 31.6765 138.825 31.1529C138.548 30.7187 138.428 30.2637 138.466 29.7879C138.504 29.3122 138.681 28.851 138.998 28.4043C139.313 27.9545 139.75 27.5587 140.309 27.2171C141.114 26.7253 141.858 26.5106 142.54 26.5731C143.22 26.6323 143.818 26.9038 144.334 27.3877Z" fill="#FAFAEE"/>
<path d="M156.649 26.6246C155.98 27.1644 155.285 27.4887 154.565 27.5976C153.845 27.7013 153.138 27.6026 152.443 27.3014C151.749 26.995 151.111 26.4956 150.528 25.8032C149.952 25.1196 149.574 24.4124 149.394 23.6817C149.217 22.9486 149.24 22.2468 149.462 21.5761C149.688 20.9031 150.116 20.3122 150.747 19.8034C151.13 19.4943 151.554 19.2569 152.019 19.0914C152.483 18.9259 152.971 18.8611 153.482 18.897C153.992 18.9329 154.509 19.0972 155.033 19.3899C155.555 19.6797 156.07 20.1273 156.58 20.7328L156.968 21.1934L151.568 25.5481L150.748 24.5747L154.852 21.265C154.564 20.9232 154.239 20.6775 153.875 20.528C153.509 20.3756 153.133 20.3261 152.747 20.3794C152.364 20.4303 152.002 20.5937 151.66 20.8695C151.288 21.1691 151.039 21.5205 150.914 21.9236C150.788 22.3214 150.771 22.7244 150.862 23.1324C150.954 23.5352 151.14 23.9032 151.421 24.2363L152.062 24.9968C152.437 25.4429 152.837 25.7582 153.26 25.9427C153.685 26.1248 154.112 26.1819 154.54 26.114C154.966 26.0432 155.372 25.8521 155.758 25.5406C156.009 25.3385 156.208 25.1195 156.356 24.8835C156.501 24.6446 156.589 24.3936 156.62 24.1304C156.651 23.8672 156.618 23.5992 156.522 23.3264L157.961 22.5387C158.165 22.9817 158.253 23.4439 158.223 23.9255C158.193 24.4017 158.047 24.8721 157.785 25.3366C157.523 25.7958 157.144 26.2252 156.649 26.6246Z" fill="#FAFAEE"/>
<path d="M157.238 10.0899L165.682 18.0972L164.486 19.304L156.043 11.2968L157.238 10.0899Z" fill="#FAFAEE"/>
<path d="M166.585 3.81304L167.657 4.65656L164.524 8.46553L163.452 7.62201L166.585 3.81304ZM171.169 11.9761L163.517 5.95201C163.088 5.6146 162.808 5.24245 162.677 4.83555C162.543 4.4263 162.531 4.01449 162.641 3.60012C162.749 3.1834 162.949 2.79658 163.243 2.43967C163.459 2.17638 163.667 1.96869 163.866 1.81661C164.061 1.66218 164.214 1.55368 164.325 1.49111L165.152 2.64883C165.084 2.69621 164.998 2.75879 164.895 2.83659C164.789 2.91204 164.679 3.01852 164.566 3.15602C164.304 3.47489 164.196 3.76635 164.244 4.03037C164.294 4.29147 164.471 4.54152 164.774 4.78052L172.248 10.6641L171.169 11.9761Z" fill="#FAFAEE"/>
</svg>
