<svg viewBox="0 0 48 48" xml:space="preserve" xmlns="http://www.w3.org/2000/svg" enable-background="new 0 0 48 48"><path d="m20.8 27.2 2.1-6.3L38 5.8l4.2 4.2-15.1 15.1-6.3 2.1zm3.9-5.3L24 24l2.1-.7L39.4 10 38 8.6 24.7 21.9zM42.9 9.3l-4.2-4.2 1.4-1.4c1.2-1.2 3-1.2 4.2 0 .6.6.9 1.3.9 2.1s-.3 1.5-.9 2.1l-1.4 1.4zm-1.4-4.2 1.4 1.4c.2-.2.3-.4.3-.7 0-.3-.1-.5-.3-.7-.4-.4-1-.4-1.4 0z" fill="#421b73" class="fill-000000"></path><path d="M38 46H5c-1.7 0-3-1.3-3-3V10c0-1.7 1.3-3 3-3h27v2H5c-.6 0-1 .4-1 1v33c0 .6.4 1 1 1h33c.6 0 1-.4 1-1V16h2v27c0 1.7-1.3 3-3 3z" fill="#421b73" class="fill-000000"></path></svg>